<svg width="100" height="100" viewBox="0 0 100 100" xmlns="http://www.w3.org/2000/svg">
  <!-- Football field background -->
  <rect x="10" y="10" width="80" height="80" fill="#4CAF50" stroke="#FFFFFF" stroke-width="2" />
  
  <!-- Field lines -->
  <line x1="50" y1="10" x2="50" y2="90" stroke="#FFFFFF" stroke-width="1" />
  <circle cx="50" cy="50" r="15" fill="none" stroke="#FFFFFF" stroke-width="1" />
  
  <!-- Football -->
  <circle cx="50" cy="50" r="10" fill="#FFFFFF" />
  <path d="M50,40 L45,46 L48,55 L52,55 L55,46 Z" fill="#000000" />
  <path d="M40,50 L46,45 L55,48 L55,52 L46,55 Z" fill="#000000" />
  <path d="M50,60 L45,54 L48,45 L52,45 L55,54 Z" fill="#000000" />
  <path d="M60,50 L54,45 L45,48 L45,52 L54,55 Z" fill="#000000" />
  
  <!-- Chess piece overlay -->
  <path d="M35,75 L40,65 L45,75 Z" fill="#000000" opacity="0.7" />
  <rect x="55" y="65" width="10" height="10" fill="#000000" opacity="0.7" />
</svg>
